<?xml version="1.0" standalone="no"?>
<!DOCTYPE svg PUBLIC "-//W3C//DTD SVG 20010904//EN"
 "http://www.w3.org/TR/2001/REC-SVG-20010904/DTD/svg10.dtd">
<svg version="1.0" xmlns="http://www.w3.org/2000/svg"
 width="250.000000pt" height="271.000000pt" viewBox="0 0 250.000000 271.000000"
 preserveAspectRatio="xMidYMid meet">

<g transform="translate(0.000000,271.000000) scale(0.100000,-0.100000)"
fill="#000000" stroke="none">
<path d="M535 2645 c-38 -19 -75 -35 -80 -35 -37 0 -245 -192 -245 -226 0 -12
-7 -27 -16 -34 -23 -20 -32 -42 -61 -147 -26 -96 -27 -104 -31 -472 -3 -355
-2 -376 16 -420 11 -25 23 -64 27 -86 9 -48 59 -157 80 -175 8 -7 15 -18 15
-25 0 -15 66 -154 165 -346 48 -92 186 -215 321 -285 62 -33 139 -83 182 -120
41 -35 80 -64 87 -64 6 0 29 -8 51 -19 21 -10 57 -21 79 -25 22 -4 76 -16 121
-27 67 -17 106 -20 230 -17 l149 3 79 38 c43 21 99 57 124 80 161 148 268 272
289 334 9 26 23 59 32 73 14 21 16 97 16 666 0 492 -3 644 -12 656 -7 8 -17
43 -22 79 -30 190 -72 327 -114 366 -43 41 -150 101 -196 112 -21 4 -69 25
-107 47 -63 34 -78 38 -174 45 -167 12 -290 27 -365 43 -53 12 -131 16 -320
15 l-250 0 -70 -34z m599 -10 c44 -9 82 -18 85 -22 3 -3 -5 -2 -19 2 -14 4
-153 10 -310 13 -316 6 -335 19 -30 21 137 1 218 -3 274 -14z m-584 -35 c-8
-5 -19 -10 -25 -10 -5 0 -3 5 5 10 8 5 20 10 25 10 6 0 3 -5 -5 -10z m820 1
c44 -8 43 -8 -20 -9 -36 0 -78 4 -95 8 -26 7 -23 8 20 8 28 0 70 -3 95 -7z
m-166 -29 c15 -7 68 -15 118 -19 49 -3 91 -10 94 -15 3 -4 49 -8 102 -8 94 0
100 -1 172 -40 41 -22 85 -40 97 -40 20 0 132 -55 143 -70 3 -4 15 -10 28 -14
12 -4 22 -12 22 -18 0 -11 5 -13 -87 35 -40 20 -79 37 -88 37 -9 0 -48 17 -88
38 -65 34 -82 38 -177 43 -58 4 -134 12 -170 18 -297 52 -308 53 -540 49 -216
-4 -227 -5 -277 -30 -29 -13 -58 -29 -65 -35 -7 -6 -28 -13 -47 -17 -34 -6
-34 -6 -16 14 10 11 30 20 45 20 14 0 31 5 37 11 6 6 33 22 59 35 49 23 52 23
329 21 191 -2 289 -7 309 -15z m384 1 c-26 -2 -71 -2 -100 0 -29 2 -8 3 47 3
55 0 79 -1 53 -3z m-1115 -10 c-7 -2 -19 -2 -25 0 -7 3 -2 5 12 5 14 0 19 -2
13 -5z m510 -40 c-62 -2 -164 -2 -225 0 -62 1 -12 3 112 3 124 0 174 -2 113
-3z m-350 -10 c-7 -2 -19 -2 -25 0 -7 3 -2 5 12 5 14 0 19 -2 13 -5z m500 0
c-7 -2 -19 -2 -25 0 -7 3 -2 5 12 5 14 0 19 -2 13 -5z m60 -10 c-7 -2 -21 -2
-30 0 -10 3 -4 5 12 5 17 0 24 -2 18 -5z m146 -19 c8 -8 -104 -4 -117 5 -8 5
13 6 50 4 34 -2 65 -6 67 -9z m464 9 c-7 -2 -19 -2 -25 0 -7 3 -2 5 12 5 14 0
19 -2 13 -5z m-821 -20 c-62 -2 -161 -2 -220 0 -59 1 -8 3 113 3 121 0 169 -2
107 -3z m415 1 c-3 -3 -12 -4 -19 -1 -8 3 -5 6 6 6 11 1 17 -2 13 -5z m-1012
-24 c-3 -5 -11 -10 -16 -10 -6 0 -7 5 -4 10 3 6 11 10 16 10 6 0 7 -4 4 -10z
m802 4 c-3 -3 -12 -4 -19 -1 -8 3 -5 6 6 6 11 1 17 -2 13 -5z m401 -1 c-27 -2
-69 -2 -95 0 -27 2 -5 3 47 3 52 0 74 -1 48 -3z m-1111 -9 c-3 -3 -12 -4 -19
-1 -8 3 -5 6 6 6 11 1 17 -2 13 -5z m674 -28 c41 -8 113 -20 162 -26 48 -7 90
-16 92 -21 7 -10 -148 -1 -185 11 -76 25 -177 32 -390 28 -206 -4 -228 -6
-267 -26 -46 -24 -53 -26 -53 -14 0 8 87 47 125 55 53 12 447 6 516 -7z m-841
-31 c-7 -9 -15 -13 -19 -10 -3 3 1 10 9 15 21 14 24 12 10 -5z m178 -37 c-3
-7 -18 -14 -34 -16 -28 -2 -28 -2 -10 13 24 18 49 20 44 3z m1147 2 c4 -6 -30
-10 -94 -10 -61 0 -101 4 -101 10 0 6 38 10 94 10 53 0 98 -4 101 -10z m95
-45 c27 -14 57 -25 67 -25 21 0 111 -46 133 -67 8 -8 -13 -1 -47 16 -34 17
-70 31 -80 31 -21 1 -154 69 -135 70 7 0 35 -11 62 -25z m-567 0 c40 -8 110
-19 157 -25 46 -6 92 -16 101 -21 10 -5 60 -9 111 -9 90 0 97 -2 171 -40 42
-22 86 -40 97 -40 33 0 169 -79 201 -116 26 -31 62 -168 88 -335 5 -32 14 -66
20 -77 7 -14 11 -124 11 -324 l0 -303 -31 -75 c-36 -85 -32 -79 -201 -252
-110 -112 -134 -131 -208 -167 l-84 -41 -134 0 c-84 0 -153 5 -185 14 -29 8
-86 22 -127 31 -41 9 -85 23 -97 31 -12 8 -29 14 -36 14 -8 0 -49 30 -91 66
-47 39 -119 87 -182 119 -128 66 -254 177 -294 258 -14 29 -38 70 -53 92 -15
22 -27 45 -27 52 0 8 -17 48 -39 91 -21 42 -44 93 -50 113 -7 20 -21 45 -31
54 -11 10 -20 25 -20 34 0 9 -9 27 -20 41 -11 14 -20 34 -20 46 0 11 -9 47
-20 80 -11 32 -20 80 -20 105 0 67 45 236 75 279 14 20 25 43 25 52 0 14 66
79 171 167 20 17 45 31 56 31 10 0 23 4 29 10 5 5 36 21 69 34 58 24 69 25
288 26 161 0 249 -4 300 -15z m650 -92 c-7 -2 -19 -2 -25 0 -7 3 -2 5 12 5 14
0 19 -2 13 -5z m162 -23 c3 -5 2 -10 -4 -10 -5 0 -13 5 -16 10 -3 6 -2 10 4
10 5 0 13 -4 16 -10z m-1237 -1529 c67 -35 122 -68 122 -73 0 -5 -54 19 -119
53 -102 53 -131 74 -198 143 l-78 80 76 -70 c55 -50 109 -86 197 -133z m-68
-132 c0 -5 -13 -3 -30 6 -16 9 -30 17 -30 20 0 2 14 -1 30 -6 17 -6 30 -15 30
-20z m1170 -14 c-7 -9 -15 -13 -17 -11 -7 7 7 26 19 26 6 0 6 -6 -2 -15z
m-1035 -57 c16 -16 -34 0 -82 28 -24 14 -43 27 -43 29 0 7 114 -45 125 -57z
m211 19 c27 -13 76 -29 109 -36 33 -8 92 -22 131 -32 52 -14 105 -19 202 -19
138 0 195 13 280 63 23 14 33 16 30 7 -2 -7 -35 -29 -74 -49 l-69 -36 -170 0
c-150 0 -183 3 -276 26 -95 24 -198 65 -223 90 -17 16 8 10 60 -14z m506 -44
c-40 -2 -103 -2 -140 0 -37 2 -4 3 73 3 77 0 107 -2 67 -3z m-365 -69 c-3 -3
-12 -4 -19 -1 -8 3 -5 6 6 6 11 1 17 -2 13 -5z m46 -11 c-7 -2 -19 -2 -25 0
-7 3 -2 5 12 5 14 0 19 -2 13 -5z m44 -9 c-3 -3 -12 -4 -19 -1 -8 3 -5 6 6 6
11 1 17 -2 13 -5z m-210 -42 c13 -8 73 -26 135 -40 91 -21 145 -27 276 -29
l162 -4 86 40 c99 47 95 28 -5 -21 -64 -32 -70 -33 -216 -36 -134 -3 -162 -1
-265 23 -119 27 -173 46 -225 78 l-30 18 30 -7 c17 -4 40 -14 52 -22z m491 21
c-42 -2 -114 -2 -160 0 -46 1 -11 3 77 3 88 0 125 -2 83 -3z m-371 -9 c-3 -3
-12 -4 -19 -1 -8 3 -5 6 6 6 11 1 17 -2 13 -5z m50 -10 c-3 -3 -12 -4 -19 -1
-8 3 -5 6 6 6 11 1 17 -2 13 -5z m321 -31 c-43 -2 -113 -2 -155 0 -43 1 -8 3
77 3 85 0 120 -2 78 -3z m-415 -60 c-7 -2 -19 -2 -25 0 -7 3 -2 5 12 5 14 0
19 -2 13 -5z m44 -9 c-3 -3 -12 -4 -19 -1 -8 3 -5 6 6 6 11 1 17 -2 13 -5z
m56 -11 c-7 -2 -19 -2 -25 0 -7 3 -2 5 12 5 14 0 19 -2 13 -5z m44 -9 c-3 -3
-12 -4 -19 -1 -8 3 -5 6 6 6 11 1 17 -2 13 -5z m281 -21 c-42 -2 -114 -2 -160
0 -46 1 -11 3 77 3 88 0 125 -2 83 -3z"/>
<path d="M913 2175 c-208 -45 -368 -210 -429 -440 -28 -108 -26 -334 4 -440
81 -282 284 -437 572 -438 169 0 286 42 383 140 56 56 117 157 117 194 0 12
-22 31 -63 54 -35 19 -66 35 -69 35 -3 0 -18 -26 -34 -57 -33 -69 -100 -138
-157 -163 -67 -30 -167 -42 -243 -30 -202 32 -315 183 -331 442 -6 103 8 225
34 291 17 41 25 43 90 15 l28 -12 -37 -4 c-21 -2 -38 -7 -38 -11 0 -4 58 -160
129 -347 l129 -339 74 -3 74 -3 127 338 c70 186 127 343 127 350 0 6 -17 13
-37 15 -42 4 -40 6 52 39 66 24 135 84 135 117 0 26 -77 130 -121 163 -125 95
-335 133 -516 94z m-122 -225 c6 -16 15 -30 20 -30 5 0 9 -7 9 -15 0 -29 -16
-14 -32 30 -10 25 -15 45 -12 45 3 0 10 -13 15 -30z m164 -15 c0 -36 -3 -40
-27 -43 -27 -3 -28 -2 -28 43 0 45 1 46 28 43 24 -3 27 -7 27 -43z m55 34
c-23 -10 -24 -11 -7 -24 15 -11 16 -13 2 -19 -24 -9 -18 -24 13 -29 25 -4 25
-4 -5 -6 -33 -1 -33 0 -33 44 0 43 1 45 28 44 l27 0 -25 -10z m110 2 c0 -4
-11 -6 -25 -3 -23 4 -25 1 -25 -33 0 -35 2 -37 26 -32 16 3 22 1 16 -5 -19
-19 -47 -4 -50 25 -2 16 -1 35 2 43 6 15 56 20 56 5z m82 -36 c10 -25 15 -45
12 -45 -13 0 -30 26 -27 41 3 9 0 20 -6 23 -7 5 -11 -2 -11 -17 0 -14 -7 -30
-15 -37 -8 -7 -15 -10 -15 -6 0 13 33 86 39 86 4 0 14 -20 23 -45z m91 32 c3
-8 1 -20 -3 -27 -5 -8 -4 -22 1 -32 6 -12 6 -18 0 -18 -5 0 -13 9 -16 20 -7
23 -25 27 -25 6 0 -8 -4 -18 -10 -21 -6 -4 -10 12 -10 39 0 44 1 46 29 46 16
0 31 -6 34 -13z m47 2 c-23 -10 -24 -11 -7 -24 15 -11 16 -13 2 -19 -24 -9
-18 -24 13 -29 25 -4 25 -4 -5 -6 -33 -1 -33 0 -33 44 0 43 1 45 28 44 l27 0
-25 -10z m-509 -26 c-12 -20 -14 -14 -5 12 4 9 9 14 11 11 3 -2 0 -13 -6 -23z
m467 -194 c-2 -4 -50 -133 -108 -288 -58 -154 -109 -281 -115 -281 -7 0 -180
441 -222 565 -2 6 76 10 222 10 124 0 224 -3 223 -6z"/>
<path d="M913 1958 c2 -7 10 -13 17 -13 7 0 15 6 18 13 2 7 -5 12 -18 12 -13
0 -20 -5 -17 -12z"/>
<path d="M910 1915 c0 -8 9 -15 20 -15 11 0 20 7 20 15 0 8 -9 15 -20 15 -11
0 -20 -7 -20 -15z"/>
<path d="M1250 1955 c0 -8 7 -15 15 -15 8 0 15 7 15 15 0 8 -7 15 -15 15 -8 0
-15 -7 -15 -15z"/>
</g>
</svg>
