<svg id="svg" version="1.1" xmlns="http://www.w3.org/2000/svg" xmlns:xlink="http://www.w3.org/1999/xlink" width="400" height="400" viewBox="0, 0, 400,400"><g id="svgg"><path id="path0" d="M0.000 200.000 L 0.000 400.000 200.000 400.000 L 400.000 400.000 400.000 200.000 L 400.000 0.000 200.000 0.000 L 0.000 0.000 0.000 200.000 M206.599 133.393 C 214.560 135.203,220.616 138.328,225.603 143.200 C 229.267 146.779,233.600 153.053,233.600 154.780 C 233.600 155.726,229.847 160.023,227.902 161.303 C 224.914 163.269,224.440 163.488,219.885 165.002 L 215.800 166.361 218.657 166.380 C 222.261 166.405,222.334 166.580,220.600 171.078 C 219.344 174.336,216.463 181.935,205.311 211.400 C 200.116 225.124,201.434 223.600,194.760 223.600 C 188.109 223.600,189.095 224.554,185.256 214.400 C 182.063 205.952,179.320 198.736,172.426 180.640 C 166.791 165.852,166.896 166.667,170.604 166.394 L 173.400 166.187 171.600 165.653 C 170.610 165.359,169.010 164.852,168.045 164.525 C 165.943 163.813,165.994 163.761,164.621 168.050 C 157.653 189.818,164.464 215.003,179.288 222.285 C 195.641 230.319,213.692 224.188,220.995 208.119 C 222.695 204.379,222.755 204.382,229.744 208.508 L 234.487 211.308 234.259 212.713 C 233.478 217.528,227.190 226.783,221.740 231.141 C 206.128 243.622,178.327 242.679,162.512 229.131 C 137.960 208.099,139.949 158.091,166.042 140.372 C 176.403 133.336,193.448 130.402,206.599 133.393 M177.200 167.344 C 177.200 167.479,178.718 171.597,180.574 176.495 C 182.430 181.393,186.290 191.585,189.152 199.145 C 194.619 213.582,194.611 213.565,195.159 212.973 C 195.642 212.451,212.441 167.508,212.232 167.299 C 212.138 167.205,210.832 167.340,209.331 167.599 C 202.945 168.701,186.421 168.559,178.700 167.335 C 177.875 167.205,177.200 167.209,177.200 167.344 " stroke="none" fill="#fbfbfb" fill-rule="evenodd"></path><path id="path1" d="M186.400 133.391 C 163.125 136.839,148.669 153.375,146.354 179.200 C 143.189 214.503,162.602 239.196,193.523 239.199 C 211.442 239.201,224.366 232.019,231.306 218.200 C 234.487 211.866,234.540 212.062,228.748 208.657 C 222.946 205.248,223.274 205.195,220.788 209.948 C 214.386 222.191,203.680 227.708,189.692 225.973 C 171.359 223.700,161.615 209.827,161.615 186.000 C 161.615 175.134,164.223 162.673,166.359 163.337 C 179.105 167.296,179.559 167.361,194.600 167.382 C 208.779 167.402,209.176 167.359,218.400 164.777 C 226.876 162.404,233.610 157.064,232.422 153.658 C 227.530 139.640,206.560 130.405,186.400 133.391 M171.495 149.300 C 171.711 149.575,172.207 150.655,172.598 151.700 C 173.455 153.992,173.790 154.066,174.414 152.100 C 174.994 150.270,175.883 148.800,176.409 148.800 C 176.959 148.800,176.895 150.063,176.265 151.651 C 175.970 152.393,175.416 153.855,175.032 154.900 C 174.546 156.223,174.111 156.800,173.600 156.800 C 173.089 156.800,172.654 156.223,172.168 154.900 C 171.784 153.855,171.230 152.393,170.935 151.651 C 170.047 149.413,170.404 147.912,171.495 149.300 M185.501 149.859 C 185.816 150.285,185.958 151.069,185.834 151.702 C 185.716 152.308,185.820 153.246,186.066 153.786 C 186.961 155.748,184.102 157.794,181.583 156.994 C 180.769 156.736,180.348 149.792,181.100 149.028 C 181.652 148.467,184.927 149.086,185.501 149.859 M192.000 149.200 C 192.000 149.420,192.006 149.735,192.013 149.900 C 192.021 150.065,191.347 150.290,190.517 150.400 C 188.598 150.654,188.071 152.000,189.891 152.000 C 190.979 152.000,192.000 152.608,192.000 153.256 C 192.000 153.419,191.325 153.608,190.500 153.676 C 188.381 153.851,187.994 155.597,190.072 155.606 C 190.802 155.609,191.670 155.789,192.000 156.006 C 193.312 156.867,190.412 157.568,188.100 156.948 C 187.201 156.707,186.653 149.881,187.467 149.067 C 187.894 148.639,192.000 148.760,192.000 149.200 M198.146 149.629 C 198.726 150.085,199.200 150.704,199.200 151.005 C 199.200 152.016,198.299 152.126,197.600 151.200 C 196.028 149.115,193.852 151.283,194.663 154.127 C 195.075 155.575,196.996 156.197,197.445 155.027 C 197.746 154.243,199.200 154.197,199.200 154.971 C 199.200 156.865,195.717 157.754,194.208 156.245 C 190.823 152.860,194.468 146.736,198.146 149.629 M205.100 152.516 C 205.815 154.334,206.400 156.042,206.400 156.311 C 206.400 157.128,204.908 156.858,204.684 156.000 C 204.532 155.418,204.138 155.200,203.241 155.200 C 202.440 155.200,201.831 155.481,201.507 156.000 C 201.107 156.641,199.600 157.175,199.600 156.677 C 199.600 156.236,202.137 149.716,202.460 149.327 C 203.187 148.452,203.787 149.177,205.100 152.516 M211.326 149.260 C 212.883 150.079,213.273 151.653,212.304 153.205 C 211.909 153.838,211.909 154.162,212.304 154.795 C 212.577 155.232,212.800 155.862,212.800 156.195 C 212.800 157.282,211.685 156.831,210.788 155.381 C 209.755 153.710,209.049 153.765,208.875 155.531 C 208.781 156.476,208.552 156.800,207.975 156.800 C 207.189 156.800,206.730 149.804,207.467 149.067 C 207.897 148.636,210.378 148.761,211.326 149.260 M218.400 149.200 C 218.400 149.420,218.406 149.735,218.413 149.900 C 218.421 150.065,217.747 150.290,216.917 150.400 C 214.998 150.654,214.471 152.000,216.291 152.000 C 217.379 152.000,218.400 152.608,218.400 153.256 C 218.400 153.419,217.725 153.608,216.900 153.676 C 214.781 153.851,214.394 155.597,216.472 155.606 C 217.202 155.609,218.070 155.789,218.400 156.006 C 219.712 156.867,216.812 157.568,214.500 156.948 C 213.601 156.707,213.053 149.881,213.867 149.067 C 214.294 148.639,218.400 148.760,218.400 149.200 M179.200 153.000 C 179.200 156.533,179.144 156.800,178.400 156.800 C 177.656 156.800,177.600 156.533,177.600 153.000 C 177.600 149.467,177.656 149.200,178.400 149.200 C 179.144 149.200,179.200 149.467,179.200 153.000 M182.400 151.172 C 182.400 151.795,182.655 152.000,183.429 152.000 C 184.742 152.000,184.625 150.662,183.296 150.472 C 182.615 150.375,182.400 150.543,182.400 151.172 M208.945 151.000 C 208.677 151.699,209.023 152.800,209.511 152.800 C 210.310 152.800,211.316 151.680,211.078 151.058 C 210.762 150.235,209.254 150.194,208.945 151.000 M202.604 152.393 C 202.309 152.871,202.683 153.600,203.224 153.600 C 203.710 153.600,203.713 152.517,203.228 152.217 C 203.023 152.091,202.742 152.170,202.604 152.393 M182.400 154.600 C 182.400 155.770,184.137 156.063,184.559 154.964 C 184.905 154.061,184.506 153.600,183.376 153.600 C 182.602 153.600,182.400 153.806,182.400 154.600 M168.400 167.771 C 168.400 168.101,168.781 169.322,169.246 170.485 C 169.711 171.648,170.596 173.950,171.211 175.600 C 171.826 177.250,173.980 182.920,175.996 188.200 C 178.013 193.480,180.994 201.310,182.622 205.600 C 184.249 209.890,186.371 215.470,187.335 218.000 L 189.090 222.600 194.745 222.711 C 197.855 222.772,200.400 222.764,200.400 222.693 C 200.400 222.576,204.278 212.261,208.479 201.200 C 209.357 198.890,210.581 195.650,211.200 194.000 C 211.819 192.350,213.045 189.110,213.924 186.800 C 217.240 178.089,221.200 167.496,221.200 167.337 C 221.200 167.246,219.388 167.223,217.173 167.286 L 213.147 167.400 204.526 190.400 C 199.784 203.050,195.701 213.532,195.452 213.693 C 194.162 214.531,194.316 214.875,185.591 191.600 C 184.973 189.950,183.923 187.160,183.257 185.400 C 182.592 183.640,180.789 178.870,179.250 174.800 L 176.453 167.400 172.426 167.286 C 169.066 167.191,168.400 167.271,168.400 167.771 " stroke="none" fill="#060606" fill-rule="evenodd"></path><path id="path2" d="M190.500 132.698 C 192.425 132.771,195.575 132.771,197.500 132.698 C 199.425 132.625,197.850 132.565,194.000 132.565 C 190.150 132.565,188.575 132.625,190.500 132.698 M183.400 133.200 C 182.322 133.474,182.302 133.506,183.200 133.513 C 183.750 133.517,184.650 133.376,185.200 133.200 C 186.544 132.769,185.092 132.769,183.400 133.200 M203.400 133.200 C 204.060 133.368,205.050 133.505,205.600 133.505 C 206.492 133.505,206.470 133.472,205.400 133.200 C 204.740 133.032,203.750 132.895,203.200 132.895 C 202.308 132.895,202.330 132.928,203.400 133.200 M179.800 134.000 C 179.296 134.217,179.222 134.344,179.600 134.344 C 179.930 134.344,180.560 134.189,181.000 134.000 C 181.504 133.783,181.578 133.656,181.200 133.656 C 180.870 133.656,180.240 133.811,179.800 134.000 M207.800 134.000 C 208.240 134.189,208.870 134.344,209.200 134.344 C 209.578 134.344,209.504 134.217,209.000 134.000 C 208.560 133.811,207.930 133.656,207.600 133.656 C 207.222 133.656,207.296 133.783,207.800 134.000 M216.766 137.208 C 217.957 137.865,218.993 138.341,219.068 138.266 C 219.240 138.094,215.414 135.997,214.946 136.007 C 214.756 136.011,215.575 136.552,216.766 137.208 M170.600 137.600 C 169.036 138.636,169.592 138.637,171.290 137.601 C 172.011 137.162,172.420 136.804,172.200 136.804 C 171.980 136.805,171.260 137.163,170.600 137.600 M166.270 140.226 C 163.767 141.905,157.419 147.552,157.709 147.842 C 157.777 147.911,159.181 146.669,160.827 145.083 C 162.473 143.498,165.031 141.414,166.510 140.453 C 168.842 138.938,169.520 138.400,169.096 138.400 C 169.038 138.400,167.767 139.222,166.270 140.226 M220.800 139.325 C 220.800 139.424,221.461 140.009,222.268 140.625 C 223.076 141.241,223.611 141.541,223.456 141.291 C 223.140 140.779,220.800 139.047,220.800 139.325 M224.000 141.662 C 224.000 141.985,227.689 145.645,227.850 145.483 C 227.923 145.411,227.086 144.469,225.991 143.391 C 224.896 142.312,224.000 141.535,224.000 141.662 M156.744 149.100 C 155.593 150.489,155.106 151.200,155.304 151.200 C 155.414 151.200,155.986 150.570,156.573 149.800 C 157.663 148.371,157.795 147.832,156.744 149.100 M170.800 149.737 C 170.800 150.055,171.956 153.603,172.384 154.600 C 172.573 155.040,172.828 155.715,172.951 156.100 C 173.074 156.485,173.366 156.800,173.600 156.800 C 173.834 156.800,174.126 156.485,174.249 156.100 C 174.372 155.715,174.627 155.040,174.816 154.600 C 175.609 152.755,176.410 149.876,176.192 149.658 C 175.876 149.343,175.214 150.431,175.206 151.276 C 175.203 151.648,175.020 152.064,174.800 152.200 C 174.580 152.336,174.400 152.887,174.400 153.424 C 174.400 154.133,174.182 154.400,173.600 154.400 C 173.018 154.400,172.800 154.133,172.800 153.424 C 172.800 152.887,172.620 152.336,172.400 152.200 C 172.180 152.064,172.000 151.625,172.000 151.225 C 172.000 150.825,171.730 150.274,171.400 150.000 C 171.070 149.726,170.800 149.608,170.800 149.737 M178.267 149.867 C 177.832 150.301,177.957 156.400,178.400 156.400 C 178.635 156.400,178.800 155.000,178.800 153.000 C 178.800 149.593,178.762 149.371,178.267 149.867 M180.884 153.100 L 181.000 156.600 182.483 156.723 C 185.174 156.947,185.579 156.430,185.484 152.895 L 185.400 149.800 184.200 149.708 C 183.059 149.620,183.044 149.637,183.900 150.069 C 185.039 150.643,185.046 151.472,183.921 152.384 L 183.041 153.096 183.921 153.375 C 185.203 153.782,185.186 155.998,183.900 156.005 C 183.405 156.008,182.595 156.119,182.100 156.252 C 181.540 156.402,181.200 156.316,181.200 156.023 C 181.200 155.764,181.363 155.654,181.563 155.777 C 181.762 155.900,181.830 155.635,181.713 155.187 C 181.592 154.726,181.786 154.058,182.160 153.644 C 182.733 153.011,182.744 152.851,182.241 152.434 C 181.775 152.047,181.627 152.094,181.485 152.677 C 181.388 153.074,181.376 152.872,181.459 152.226 C 181.542 151.581,181.905 150.726,182.267 150.326 C 182.886 149.642,182.862 149.600,181.846 149.600 L 180.769 149.600 180.884 153.100 M187.600 153.200 L 187.600 156.800 189.800 156.800 C 191.166 156.800,192.000 156.629,192.000 156.349 C 192.000 156.048,191.324 155.963,189.966 156.094 C 188.848 156.201,188.083 156.179,188.266 156.045 C 188.450 155.910,188.600 155.262,188.600 154.604 C 188.600 153.599,188.791 153.367,189.800 153.151 L 191.000 152.895 189.908 152.847 C 188.637 152.792,187.973 151.196,188.804 150.195 C 189.215 149.700,189.155 149.600,188.449 149.600 C 187.647 149.600,187.600 149.797,187.600 153.200 M194.100 150.198 C 193.291 151.117,193.456 155.345,194.331 156.138 C 195.397 157.103,197.422 156.990,198.168 155.924 C 198.897 154.884,198.566 154.285,197.823 155.301 C 197.236 156.104,195.587 156.227,194.880 155.520 C 193.987 154.627,194.278 150.983,195.300 150.270 C 196.153 149.675,196.158 149.642,195.400 149.636 C 194.960 149.633,194.375 149.886,194.100 150.198 M197.402 150.402 C 198.198 151.282,198.634 151.188,198.262 150.217 C 198.132 149.878,197.722 149.600,197.351 149.600 C 196.735 149.600,196.740 149.670,197.402 150.402 M202.100 150.683 C 201.825 151.275,201.600 151.996,201.600 152.285 C 201.600 152.574,201.420 153.168,201.200 153.605 C 200.980 154.042,200.620 154.758,200.400 155.195 C 199.906 156.176,199.888 156.800,200.353 156.800 C 200.773 156.800,201.291 155.328,201.268 154.200 C 201.255 153.538,201.287 153.521,201.455 154.100 C 201.819 155.353,202.291 154.839,202.291 153.188 C 202.291 151.270,202.558 150.901,203.424 151.620 C 203.840 151.965,204.007 152.568,203.897 153.322 C 203.744 154.365,205.032 156.400,205.845 156.400 C 206.088 156.400,205.735 155.032,205.121 153.600 C 204.555 152.277,204.123 151.157,203.849 150.300 C 203.519 149.268,202.671 149.454,202.100 150.683 M207.600 153.000 C 207.600 156.383,208.164 157.671,208.476 155.000 C 208.566 154.230,208.496 153.600,208.320 153.600 C 208.144 153.600,208.000 153.398,208.000 153.151 C 208.000 152.829,208.160 152.835,208.566 153.172 C 209.304 153.784,211.266 153.564,211.887 152.800 C 212.950 151.491,212.234 149.600,210.676 149.600 C 209.971 149.600,209.982 149.657,210.806 150.325 C 212.157 151.419,211.581 152.889,209.866 152.723 C 208.467 152.587,207.920 151.260,208.818 150.178 C 209.211 149.705,209.144 149.600,208.449 149.600 C 207.650 149.600,207.600 149.801,207.600 153.000 M214.000 153.200 L 214.000 156.800 216.200 156.800 C 217.566 156.800,218.400 156.629,218.400 156.349 C 218.400 156.048,217.724 155.963,216.366 156.094 C 215.248 156.201,214.483 156.179,214.666 156.045 C 214.850 155.910,215.000 155.262,215.000 154.604 C 215.000 153.599,215.191 153.367,216.200 153.151 L 217.400 152.895 216.308 152.847 C 215.037 152.792,214.373 151.196,215.204 150.195 C 215.615 149.700,215.555 149.600,214.849 149.600 C 214.047 149.600,214.000 149.797,214.000 153.200 M233.035 154.116 C 233.219 154.908,233.078 155.489,232.547 156.116 L 231.800 157.000 232.700 156.238 C 233.670 155.417,233.827 154.554,233.182 153.600 C 232.882 153.156,232.843 153.291,233.035 154.116 M152.600 155.200 C 152.259 155.860,152.069 156.400,152.179 156.400 C 152.289 156.400,152.659 155.860,153.000 155.200 C 153.341 154.540,153.531 154.000,153.421 154.000 C 153.311 154.000,152.941 154.540,152.600 155.200 M210.926 154.900 C 211.790 156.527,212.051 156.816,212.435 156.578 C 212.647 156.447,212.446 155.826,211.980 155.172 C 210.999 153.794,210.233 153.597,210.926 154.900 M229.400 159.803 C 228.520 160.558,226.675 161.748,225.300 162.448 C 222.562 163.841,221.992 164.348,224.204 163.424 C 225.971 162.686,229.633 160.268,230.595 159.206 C 231.668 158.020,231.213 158.247,229.400 159.803 M218.200 165.200 C 217.696 165.417,217.622 165.544,218.000 165.544 C 218.330 165.544,218.960 165.389,219.400 165.200 C 219.904 164.983,219.978 164.856,219.600 164.856 C 219.270 164.856,218.640 165.011,218.200 165.200 M172.791 165.986 C 173.197 166.243,172.511 166.397,170.591 166.480 C 168.012 166.591,167.796 166.669,167.747 167.506 C 167.703 168.260,167.724 168.277,167.875 167.606 C 168.037 166.881,168.374 166.800,171.228 166.800 C 174.191 166.800,175.236 166.406,173.767 165.843 C 172.785 165.466,172.122 165.563,172.791 165.986 M215.200 166.200 C 214.764 166.725,215.106 166.800,217.931 166.800 C 220.584 166.800,221.233 166.925,221.568 167.500 C 222.022 168.280,222.132 168.009,221.757 167.033 C 221.569 166.541,220.876 166.394,218.657 166.372 C 216.690 166.353,216.049 166.237,216.600 166.000 C 217.380 165.665,217.379 165.656,216.549 165.628 C 216.081 165.613,215.474 165.870,215.200 166.200 M147.646 167.267 C 147.621 167.634,147.496 168.264,147.370 168.667 C 147.152 169.362,147.163 169.363,147.597 168.687 C 147.848 168.296,147.973 167.666,147.873 167.287 C 147.711 166.668,147.688 166.666,147.646 167.267 M176.806 167.300 C 176.809 167.575,177.001 168.070,177.232 168.400 C 177.565 168.875,177.602 168.819,177.410 168.133 C 177.234 167.506,177.366 167.213,177.883 167.079 C 178.443 166.934,178.403 166.883,177.700 166.846 C 177.205 166.821,176.803 167.025,176.806 167.300 M211.717 167.079 C 212.234 167.213,212.366 167.506,212.190 168.133 C 211.998 168.819,212.035 168.875,212.368 168.400 C 213.051 167.424,212.862 166.797,211.900 166.846 C 211.197 166.883,211.157 166.934,211.717 167.079 M179.233 167.350 C 179.325 167.432,180.480 167.600,181.800 167.723 C 183.378 167.870,183.789 167.835,183.000 167.620 C 181.766 167.285,178.936 167.082,179.233 167.350 M206.400 167.600 C 204.401 168.021,206.452 168.038,208.800 167.620 C 210.424 167.332,210.463 167.300,209.200 167.303 C 208.430 167.304,207.170 167.438,206.400 167.600 M190.123 168.299 C 192.720 168.369,196.860 168.368,199.323 168.298 C 201.785 168.228,199.660 168.171,194.600 168.172 C 189.540 168.172,187.525 168.229,190.123 168.299 M168.251 169.574 C 168.627 171.039,169.571 173.086,169.555 172.400 C 169.547 172.070,169.194 171.080,168.771 170.200 C 168.348 169.320,168.114 169.038,168.251 169.574 M163.400 170.800 C 163.248 171.491,163.207 172.141,163.309 172.242 C 163.411 172.344,163.609 171.853,163.750 171.150 C 164.083 169.483,163.760 169.160,163.400 170.800 M146.849 170.600 C 146.816 171.040,146.696 171.850,146.583 172.400 L 146.377 173.400 146.806 172.419 C 147.042 171.879,147.161 171.069,147.072 170.619 C 146.913 169.821,146.907 169.821,146.849 170.600 M178.445 171.600 C 178.453 171.930,178.806 172.920,179.229 173.800 C 179.652 174.680,179.886 174.962,179.749 174.426 C 179.373 172.961,178.429 170.914,178.445 171.600 M162.656 174.084 C 162.521 174.588,162.428 175.450,162.449 176.000 C 162.472 176.589,162.631 176.271,162.836 175.225 C 163.203 173.352,163.073 172.527,162.656 174.084 M145.800 177.200 C 145.643 178.766,145.600 180.133,145.704 180.237 C 145.808 180.342,146.020 179.144,146.175 177.575 C 146.330 176.006,146.373 174.639,146.271 174.538 C 146.169 174.436,145.957 175.634,145.800 177.200 M161.857 180.859 C 161.542 183.875,161.579 189.113,161.935 191.800 C 162.082 192.907,162.200 190.363,162.200 186.100 C 162.200 177.413,162.207 177.514,161.857 180.859 M145.328 186.000 C 145.328 187.430,145.401 188.015,145.489 187.300 C 145.578 186.585,145.578 185.415,145.489 184.700 C 145.401 183.985,145.328 184.570,145.328 186.000 M174.651 186.374 C 175.027 187.839,175.971 189.886,175.955 189.200 C 175.947 188.870,175.594 187.880,175.171 187.000 C 174.748 186.120,174.514 185.838,174.651 186.374 M145.701 193.400 C 145.705 194.280,145.787 194.593,145.883 194.095 C 145.979 193.598,145.975 192.878,145.875 192.495 C 145.775 192.113,145.696 192.520,145.701 193.400 M146.101 196.600 C 146.105 197.480,146.187 197.793,146.283 197.295 C 146.379 196.798,146.375 196.078,146.275 195.695 C 146.175 195.313,146.096 195.720,146.101 196.600 M162.428 196.233 C 162.444 196.875,162.616 197.760,162.810 198.200 C 163.047 198.734,163.086 198.402,162.927 197.200 C 162.646 195.080,162.388 194.580,162.428 196.233 M146.480 199.400 C 146.480 199.840,146.624 200.650,146.800 201.200 C 147.054 201.992,147.120 202.033,147.120 201.400 C 147.120 200.960,146.976 200.150,146.800 199.600 C 146.546 198.808,146.480 198.767,146.480 199.400 M163.268 200.200 C 163.262 200.640,163.411 201.360,163.600 201.800 C 164.038 202.819,164.038 201.768,163.600 200.400 C 163.343 199.596,163.277 199.557,163.268 200.200 M189.645 201.200 C 189.653 201.530,190.006 202.520,190.429 203.400 C 190.852 204.280,191.086 204.562,190.949 204.026 C 190.573 202.561,189.629 200.514,189.645 201.200 M181.051 203.174 C 181.427 204.639,182.371 206.686,182.355 206.000 C 182.347 205.670,181.994 204.680,181.571 203.800 C 181.148 202.920,180.914 202.638,181.051 203.174 M147.256 203.200 C 147.256 203.530,147.411 204.160,147.600 204.600 C 147.817 205.104,147.944 205.178,147.944 204.800 C 147.944 204.470,147.789 203.840,147.600 203.400 C 147.383 202.896,147.256 202.822,147.256 203.200 M225.400 206.196 C 226.294 206.939,228.828 208.309,228.200 207.710 C 227.980 207.500,227.080 206.924,226.200 206.430 C 225.320 205.935,224.960 205.830,225.400 206.196 M229.600 208.764 C 230.150 209.214,230.780 209.583,231.000 209.585 C 231.428 209.588,230.705 209.034,229.400 208.360 C 228.869 208.085,228.936 208.221,229.600 208.764 M167.000 210.400 C 167.341 211.060,167.711 211.600,167.821 211.600 C 167.931 211.600,167.741 211.060,167.400 210.400 C 167.059 209.740,166.689 209.200,166.579 209.200 C 166.469 209.200,166.659 209.740,167.000 210.400 M232.200 210.207 C 232.640 210.566,233.360 211.035,233.800 211.251 L 234.600 211.644 233.800 210.993 C 233.360 210.634,232.640 210.165,232.200 209.949 L 231.400 209.556 232.200 210.207 M204.658 212.104 C 203.728 214.540,203.880 215.004,204.836 212.647 C 205.272 211.573,205.558 210.624,205.472 210.538 C 205.386 210.452,205.020 211.157,204.658 212.104 M218.287 213.100 C 216.559 215.886,213.365 219.198,210.631 221.040 C 209.520 221.788,208.788 222.398,209.005 222.396 C 210.624 222.379,217.160 215.944,219.144 212.414 C 220.499 210.004,219.921 210.466,218.287 213.100 M193.627 211.824 C 193.612 212.056,193.851 212.590,194.157 213.008 C 194.800 213.888,196.021 213.245,195.975 212.051 C 195.957 211.610,195.832 211.691,195.588 212.300 C 195.389 212.795,195.067 213.200,194.874 213.200 C 194.681 213.200,194.327 212.795,194.088 212.300 C 193.849 211.805,193.642 211.591,193.627 211.824 M168.322 212.600 C 168.928 213.754,170.800 216.210,170.800 215.851 C 170.800 215.684,170.315 214.884,169.722 214.073 C 168.311 212.144,167.802 211.608,168.322 212.600 M150.978 213.808 C 151.301 214.582,151.862 215.617,152.224 216.108 C 152.967 217.114,152.921 216.965,151.661 214.300 C 150.619 212.097,150.109 211.730,150.978 213.808 M232.600 216.261 C 232.264 217.065,232.082 217.815,232.195 217.928 C 232.308 218.041,232.400 218.035,232.400 217.916 C 232.400 217.796,232.672 217.046,233.005 216.249 C 233.338 215.452,233.521 214.800,233.411 214.800 C 233.301 214.800,232.936 215.458,232.600 216.261 M172.400 217.800 C 173.146 218.570,173.847 219.200,173.957 219.200 C 174.067 219.200,173.546 218.570,172.800 217.800 C 172.054 217.030,171.353 216.400,171.243 216.400 C 171.133 216.400,171.654 217.030,172.400 217.800 M153.046 217.700 C 153.886 219.132,156.455 222.800,156.618 222.800 C 156.722 222.800,155.969 221.540,154.945 220.000 C 153.920 218.460,153.008 217.200,152.918 217.200 C 152.827 217.200,152.885 217.425,153.046 217.700 M230.954 219.700 C 230.587 220.415,229.760 221.810,229.115 222.800 C 228.116 224.335,228.092 224.426,228.954 223.415 C 230.040 222.143,232.190 218.400,231.835 218.400 C 231.717 218.400,231.321 218.985,230.954 219.700 M174.895 219.883 C 175.272 220.301,176.350 221.066,177.291 221.584 C 179.468 222.783,179.183 222.466,176.404 220.600 C 175.196 219.789,174.517 219.466,174.895 219.883 M187.228 219.292 C 187.182 219.765,188.486 222.848,188.658 222.675 C 188.745 222.588,188.466 221.725,188.037 220.758 C 187.608 219.791,187.244 219.131,187.228 219.292 M200.800 222.200 C 200.421 223.196,200.398 223.200,194.710 223.288 L 189.000 223.375 194.545 223.499 C 200.267 223.627,200.929 223.479,201.319 221.987 C 201.613 220.864,201.251 221.013,200.800 222.200 M158.354 225.000 C 160.189 227.149,164.034 230.676,163.948 230.131 C 163.919 229.949,162.264 228.270,160.271 226.400 C 157.661 223.952,157.124 223.560,158.354 225.000 M186.600 225.197 C 187.364 225.528,190.314 225.755,189.967 225.456 C 189.875 225.377,188.900 225.209,187.800 225.082 C 186.513 224.933,186.085 224.974,186.600 225.197 M198.600 225.200 L 197.000 225.486 198.400 225.503 C 199.170 225.513,200.250 225.376,200.800 225.200 C 202.085 224.788,200.899 224.788,198.600 225.200 M226.215 226.500 C 225.432 227.435,223.758 229.043,222.495 230.073 C 219.637 232.407,218.437 233.466,218.981 233.178 C 221.100 232.054,228.773 224.800,227.844 224.800 C 227.732 224.800,226.999 225.565,226.215 226.500 M164.669 230.832 C 165.166 231.433,167.600 232.964,167.600 232.676 C 167.600 232.583,166.835 232.002,165.900 231.385 C 164.965 230.768,164.411 230.520,164.669 230.832 M215.600 234.800 C 214.390 235.439,213.541 235.971,213.713 235.981 C 214.138 236.007,218.000 234.036,218.000 233.793 C 218.000 233.526,218.055 233.503,215.600 234.800 M207.200 238.018 C 206.762 238.315,206.924 238.352,207.800 238.156 C 209.271 237.827,209.590 237.598,208.567 237.606 C 208.145 237.609,207.530 237.795,207.200 238.018 M182.400 238.800 C 182.950 238.976,183.760 239.120,184.200 239.120 C 184.833 239.120,184.792 239.054,184.000 238.800 C 183.450 238.624,182.640 238.480,182.200 238.480 C 181.567 238.480,181.608 238.546,182.400 238.800 M203.600 238.800 C 202.808 239.054,202.767 239.120,203.400 239.120 C 203.840 239.120,204.650 238.976,205.200 238.800 C 205.992 238.546,206.033 238.480,205.400 238.480 C 204.960 238.480,204.150 238.624,203.600 238.800 M188.000 239.618 C 190.249 239.928,197.868 240.117,197.567 239.856 C 197.475 239.776,194.790 239.622,191.600 239.513 C 188.208 239.398,186.713 239.441,188.000 239.618 M198.905 239.487 C 199.514 239.579,200.414 239.577,200.905 239.482 C 201.397 239.387,200.900 239.311,199.800 239.314 C 198.700 239.317,198.297 239.395,198.905 239.487 " stroke="none" fill="#9d9d9d" fill-rule="evenodd"></path><path id="path3" d="M185.600 133.207 C 184.979 133.411,185.509 133.451,187.000 133.312 C 188.320 133.189,189.475 133.024,189.567 132.944 C 189.889 132.665,186.588 132.884,185.600 133.207 M199.100 133.082 C 199.595 133.178,200.405 133.178,200.900 133.082 C 201.395 132.987,200.990 132.909,200.000 132.909 C 199.010 132.909,198.605 132.987,199.100 133.082 M181.400 134.000 C 180.381 134.438,181.432 134.438,182.800 134.000 C 183.604 133.743,183.643 133.677,183.000 133.668 C 182.560 133.662,181.840 133.811,181.400 134.000 M206.000 134.000 C 207.368 134.438,208.419 134.438,207.400 134.000 C 206.960 133.811,206.240 133.662,205.800 133.668 C 205.157 133.677,205.196 133.743,206.000 134.000 M168.700 139.029 C 167.205 139.840,167.296 140.178,168.800 139.400 C 169.460 139.059,170.000 138.694,170.000 138.590 C 170.000 138.332,169.957 138.347,168.700 139.029 M222.800 141.508 C 223.790 142.394,224.677 143.045,224.771 142.955 C 224.948 142.786,224.257 142.191,222.200 140.742 C 221.540 140.278,221.810 140.622,222.800 141.508 M163.951 142.431 L 162.200 144.062 164.100 142.546 C 165.145 141.713,166.000 140.979,166.000 140.915 C 166.000 140.607,165.563 140.930,163.951 142.431 M160.378 145.500 L 159.000 147.000 160.500 145.622 C 161.325 144.863,162.000 144.188,162.000 144.122 C 162.000 143.816,161.662 144.104,160.378 145.500 M226.800 145.064 C 226.800 145.282,227.295 145.897,227.900 146.430 L 229.000 147.400 228.000 146.200 C 227.450 145.540,226.955 144.925,226.900 144.833 C 226.845 144.742,226.800 144.845,226.800 145.064 M157.634 148.553 L 156.669 149.800 157.813 148.712 C 158.443 148.114,158.877 147.553,158.779 147.465 C 158.680 147.377,158.165 147.867,157.634 148.553 M229.774 149.000 C 231.167 151.052,231.452 151.295,230.677 149.771 C 230.334 149.095,229.749 148.290,229.378 147.982 C 229.007 147.674,229.185 148.132,229.774 149.000 M170.400 149.153 C 170.400 149.348,170.770 149.604,171.223 149.722 C 171.898 149.898,171.961 149.835,171.574 149.369 C 171.046 148.732,170.400 148.614,170.400 149.153 M175.592 149.409 C 175.165 149.924,175.198 149.976,175.803 149.743 C 176.423 149.506,176.483 149.626,176.248 150.634 C 176.049 151.487,176.085 151.639,176.382 151.200 C 177.367 149.744,176.655 148.129,175.592 149.409 M181.064 149.096 C 180.925 149.321,181.215 149.410,181.753 149.307 C 182.263 149.209,183.367 149.319,184.206 149.551 C 185.297 149.852,185.609 149.849,185.301 149.541 C 184.720 148.960,181.366 148.608,181.064 149.096 M187.467 149.067 C 187.320 149.213,187.200 149.519,187.200 149.747 C 187.200 149.994,187.393 149.967,187.680 149.680 C 188.258 149.102,191.600 149.033,191.600 149.600 C 191.600 149.820,191.096 150.000,190.480 150.000 C 189.334 150.000,188.390 150.630,188.412 151.380 C 188.419 151.611,188.608 151.485,188.832 151.100 C 189.089 150.658,189.724 150.400,190.553 150.400 C 192.060 150.400,192.434 150.154,192.130 149.361 C 191.906 148.779,188.001 148.532,187.467 149.067 M194.344 149.596 L 193.400 150.392 194.719 149.757 C 195.514 149.374,196.467 149.222,197.119 149.373 C 197.924 149.560,198.047 149.521,197.600 149.218 C 196.657 148.580,195.373 148.729,194.344 149.596 M202.147 149.825 C 201.786 150.375,201.601 150.934,201.735 151.068 C 201.868 151.202,202.166 150.816,202.395 150.212 C 202.742 149.299,202.914 149.197,203.407 149.606 C 203.752 149.892,204.000 149.928,204.000 149.692 C 204.000 148.775,202.777 148.864,202.147 149.825 M207.467 149.067 C 206.924 149.609,207.221 150.080,207.802 149.598 C 208.198 149.270,208.987 149.186,210.102 149.355 C 211.295 149.535,211.621 149.492,211.200 149.212 C 210.524 148.761,207.875 148.658,207.467 149.067 M213.867 149.067 C 213.720 149.213,213.600 149.519,213.600 149.747 C 213.600 149.994,213.793 149.967,214.080 149.680 C 214.658 149.102,218.000 149.033,218.000 149.600 C 218.000 149.820,217.496 150.000,216.880 150.000 C 215.734 150.000,214.790 150.630,214.812 151.380 C 214.819 151.611,215.008 151.485,215.232 151.100 C 215.489 150.658,216.124 150.400,216.953 150.400 C 218.460 150.400,218.834 150.154,218.530 149.361 C 218.306 148.779,214.401 148.532,213.867 149.067 M177.600 153.000 C 177.600 155.090,177.735 156.800,177.900 156.801 C 178.065 156.801,178.142 155.157,178.070 153.147 C 177.957 149.953,178.020 149.522,178.570 149.733 C 178.917 149.866,179.200 149.801,179.200 149.587 C 179.200 149.374,178.840 149.200,178.400 149.200 C 177.656 149.200,177.600 149.467,177.600 153.000 M195.100 150.432 C 194.715 150.656,194.403 151.056,194.406 151.320 C 194.411 151.693,194.480 151.693,194.717 151.320 C 194.885 151.056,195.468 150.662,196.011 150.445 C 196.555 150.228,196.730 150.045,196.400 150.038 C 196.070 150.030,195.485 150.208,195.100 150.432 M198.647 150.579 C 198.809 150.999,198.652 151.200,198.163 151.200 C 197.632 151.200,197.558 151.318,197.885 151.645 C 198.130 151.890,198.526 151.969,198.765 151.822 C 199.308 151.486,199.331 150.528,198.805 150.203 C 198.578 150.063,198.511 150.223,198.647 150.579 M208.880 150.480 C 208.324 151.036,208.243 152.256,208.742 152.564 C 208.930 152.681,209.000 152.333,208.896 151.792 C 208.752 151.035,208.927 150.721,209.654 150.429 C 210.204 150.209,210.340 150.040,209.980 150.025 C 209.639 150.011,209.144 150.216,208.880 150.480 M182.054 151.051 C 181.984 152.151,182.833 152.877,183.613 152.383 C 184.079 152.089,184.020 152.011,183.328 152.006 C 182.744 152.002,182.398 151.702,182.282 151.100 C 182.116 150.238,182.107 150.236,182.054 151.051 M192.957 151.827 C 192.816 152.392,192.866 153.427,193.069 154.127 C 193.397 155.258,193.436 155.143,193.419 153.100 C 193.398 150.529,193.330 150.343,192.957 151.827 M210.700 152.067 C 210.167 152.625,210.133 152.800,210.557 152.800 C 210.864 152.800,211.228 152.504,211.367 152.143 C 211.717 151.231,211.520 151.208,210.700 152.067 M202.400 152.000 C 202.400 152.220,202.614 152.355,202.876 152.300 C 203.138 152.245,203.426 152.541,203.517 152.958 C 203.639 153.521,203.515 153.653,203.041 153.471 C 202.688 153.336,202.400 153.399,202.400 153.613 C 202.400 154.237,203.603 154.057,203.857 153.395 C 203.985 153.062,203.867 152.522,203.596 152.195 C 203.030 151.514,202.400 151.411,202.400 152.000 M189.000 152.400 C 189.136 152.620,189.732 152.821,190.324 152.847 L 191.400 152.895 190.243 153.147 C 187.731 153.696,187.768 156.045,190.287 155.933 L 191.800 155.866 190.276 155.707 C 188.072 155.478,188.251 153.862,190.500 153.676 C 192.078 153.545,192.311 153.271,191.520 152.480 C 190.939 151.899,188.645 151.826,189.000 152.400 M212.085 152.813 C 211.818 153.240,211.601 153.817,211.602 154.095 C 211.604 154.373,211.877 154.078,212.210 153.440 C 212.903 152.111,212.811 151.650,212.085 152.813 M215.400 152.400 C 215.536 152.620,216.132 152.821,216.724 152.847 L 217.800 152.895 216.643 153.147 C 214.131 153.696,214.168 156.045,216.687 155.933 L 218.200 155.866 216.676 155.707 C 214.472 155.478,214.651 153.862,216.900 153.676 C 218.478 153.545,218.711 153.271,217.920 152.480 C 217.339 151.899,215.045 151.826,215.400 152.400 M172.884 153.400 C 172.954 153.840,173.276 154.200,173.600 154.200 C 173.924 154.200,174.246 153.840,174.316 153.400 C 174.421 152.738,174.371 152.703,174.022 153.200 C 173.647 153.733,173.553 153.733,173.178 153.200 C 172.829 152.703,172.779 152.738,172.884 153.400 M185.807 153.920 C 185.965 154.481,185.810 155.260,185.409 155.920 L 184.753 157.000 185.576 156.056 C 186.498 154.999,186.582 154.477,185.968 153.600 C 185.641 153.133,185.605 153.204,185.807 153.920 M182.060 154.725 C 181.998 156.105,184.375 156.626,184.639 155.290 C 184.695 155.010,184.649 154.965,184.537 155.190 C 184.074 156.123,182.457 155.627,182.287 154.500 C 182.134 153.496,182.115 153.515,182.060 154.725 M208.581 154.673 C 208.445 155.293,208.264 156.025,208.179 156.300 C 208.094 156.575,208.199 156.800,208.413 156.800 C 208.626 156.800,208.800 156.271,208.800 155.624 C 208.800 154.024,209.542 153.683,210.504 154.842 L 211.298 155.800 210.701 154.800 C 209.842 153.360,208.882 153.302,208.581 154.673 M194.425 154.420 C 194.375 155.660,196.739 156.670,197.355 155.672 C 197.467 155.492,197.029 155.422,196.383 155.517 C 195.436 155.656,195.134 155.506,194.829 154.745 C 194.609 154.195,194.440 154.059,194.425 154.420 M198.832 154.769 C 198.814 155.081,198.492 155.711,198.115 156.169 C 197.469 156.953,197.483 156.951,198.362 156.142 C 198.875 155.670,199.197 155.040,199.079 154.742 C 198.904 154.303,198.857 154.308,198.832 154.769 M152.600 156.000 C 152.259 156.660,152.069 157.200,152.179 157.200 C 152.289 157.200,152.659 156.660,153.000 156.000 C 153.341 155.340,153.531 154.800,153.421 154.800 C 153.311 154.800,152.941 155.340,152.600 156.000 M201.462 155.531 C 201.098 155.934,200.800 156.424,200.800 156.620 C 200.800 156.817,201.092 156.561,201.449 156.051 C 201.957 155.327,202.388 155.158,203.421 155.278 C 204.149 155.363,204.656 155.290,204.548 155.116 C 204.181 154.522,202.125 154.799,201.462 155.531 M189.100 157.082 C 189.595 157.178,190.405 157.178,190.900 157.082 C 191.395 156.987,190.990 156.909,190.000 156.909 C 189.010 156.909,188.605 156.987,189.100 157.082 M215.500 157.082 C 215.995 157.178,216.805 157.178,217.300 157.082 C 217.795 156.987,217.390 156.909,216.400 156.909 C 215.410 156.909,215.005 156.987,215.500 157.082 M165.264 164.219 C 164.598 165.680,164.721 166.004,165.439 164.680 C 165.911 163.810,166.241 163.615,166.923 163.807 C 167.615 164.000,167.673 163.964,167.200 163.632 C 166.256 162.972,165.765 163.120,165.264 164.219 M174.158 165.932 C 174.317 166.189,174.752 166.434,175.124 166.477 C 175.496 166.519,174.092 166.654,172.004 166.777 C 168.156 167.003,167.064 167.624,168.313 168.873 C 168.563 169.123,168.629 168.886,168.499 168.204 L 168.297 167.146 172.511 167.273 C 174.829 167.343,176.642 167.265,176.539 167.100 C 176.437 166.935,176.858 166.777,177.476 166.750 C 178.374 166.710,178.278 166.641,177.000 166.408 C 176.120 166.247,175.055 165.969,174.634 165.790 C 174.092 165.559,173.953 165.600,174.158 165.932 M213.800 166.114 C 212.114 167.138,212.854 167.400,217.068 167.274 L 221.271 167.147 221.016 168.074 C 220.798 168.868,220.825 168.900,221.203 168.297 C 221.963 167.084,221.264 166.800,217.476 166.786 C 214.086 166.773,213.878 166.727,214.800 166.200 C 215.378 165.870,215.547 165.628,215.200 165.628 C 214.870 165.628,214.240 165.847,213.800 166.114 M210.000 166.800 C 209.196 167.057,209.157 167.123,209.800 167.132 C 210.240 167.138,210.960 166.989,211.400 166.800 C 212.419 166.362,211.368 166.362,210.000 166.800 M183.839 167.677 C 184.698 167.829,189.720 167.935,195.000 167.913 C 200.280 167.890,204.060 167.816,203.400 167.748 C 200.829 167.483,182.368 167.416,183.839 167.677 M147.449 169.415 C 147.312 169.773,147.215 170.366,147.234 170.733 C 147.253 171.100,147.427 170.869,147.621 170.220 C 147.998 168.958,147.865 168.333,147.449 169.415 M162.650 172.450 C 162.317 174.117,162.640 174.440,163.000 172.800 C 163.152 172.109,163.193 171.459,163.091 171.358 C 162.989 171.256,162.791 171.747,162.650 172.450 M161.785 177.785 C 161.630 179.023,161.590 180.123,161.695 180.229 C 161.801 180.334,162.007 179.401,162.154 178.154 C 162.300 176.907,162.341 175.807,162.243 175.710 C 162.146 175.612,161.939 176.546,161.785 177.785 M146.109 179.600 C 146.109 180.590,146.187 180.995,146.282 180.500 C 146.378 180.005,146.378 179.195,146.282 178.700 C 146.187 178.205,146.109 178.610,146.109 179.600 M145.753 186.200 C 145.753 188.840,145.818 189.868,145.897 188.484 C 145.975 187.101,145.974 184.941,145.895 183.684 C 145.816 182.428,145.752 183.560,145.753 186.200 M146.109 192.800 C 146.109 193.790,146.187 194.195,146.282 193.700 C 146.378 193.205,146.378 192.395,146.282 191.900 C 146.187 191.405,146.109 191.810,146.109 192.800 M161.693 193.000 C 161.694 193.660,161.832 194.740,162.000 195.400 C 162.423 197.063,162.442 195.426,162.023 193.400 C 161.745 192.055,161.692 191.991,161.693 193.000 M146.487 197.200 C 146.483 197.750,146.624 198.650,146.800 199.200 C 147.231 200.544,147.231 199.092,146.800 197.400 C 146.526 196.322,146.494 196.302,146.487 197.200 M162.468 198.400 C 162.488 199.439,163.118 201.146,163.132 200.200 C 163.138 199.760,162.989 199.040,162.800 198.600 C 162.589 198.110,162.461 198.032,162.468 198.400 M147.256 201.600 C 147.256 201.930,147.411 202.560,147.600 203.000 C 147.817 203.504,147.944 203.578,147.944 203.200 C 147.944 202.870,147.789 202.240,147.600 201.800 C 147.383 201.296,147.256 201.222,147.256 201.600 M222.223 206.489 C 221.880 206.978,221.607 207.563,221.616 207.789 C 221.625 208.015,221.910 207.687,222.250 207.060 C 222.726 206.180,223.086 205.961,223.822 206.102 C 224.346 206.202,224.681 206.130,224.564 205.942 C 224.164 205.294,222.844 205.602,222.223 206.489 M230.800 209.764 C 230.800 209.883,231.349 210.264,232.021 210.611 C 232.692 210.958,233.401 211.637,233.595 212.121 C 233.938 212.971,233.950 212.973,233.975 212.174 C 233.992 211.613,233.486 211.059,232.400 210.448 C 231.520 209.953,230.800 209.646,230.800 209.764 M217.795 214.479 C 217.184 215.403,215.945 216.996,215.042 218.019 C 214.139 219.042,214.390 218.845,215.600 217.582 C 217.544 215.553,219.545 212.800,219.076 212.800 C 218.983 212.800,218.406 213.556,217.795 214.479 M170.000 215.447 C 170.000 215.656,171.035 216.811,172.300 218.014 L 174.600 220.200 172.400 217.809 C 171.190 216.494,170.155 215.339,170.100 215.243 C 170.045 215.146,170.000 215.238,170.000 215.447 M153.324 217.400 C 153.662 218.060,154.238 218.960,154.604 219.400 C 154.970 219.840,154.865 219.480,154.370 218.600 C 153.280 216.658,152.464 215.722,153.324 217.400 M231.000 218.800 C 230.659 219.460,230.469 220.000,230.579 220.000 C 230.689 220.000,231.059 219.460,231.400 218.800 C 231.741 218.140,231.931 217.600,231.821 217.600 C 231.711 217.600,231.341 218.140,231.000 218.800 M211.281 220.972 C 209.423 222.285,209.162 222.661,210.731 221.762 C 211.463 221.343,212.250 220.775,212.480 220.500 C 213.071 219.793,212.793 219.902,211.281 220.972 M155.991 221.588 C 156.457 222.241,157.042 222.902,157.291 223.056 C 157.541 223.211,157.241 222.676,156.625 221.868 C 155.288 220.115,154.784 219.892,155.991 221.588 M228.702 222.667 C 227.878 223.865,227.380 224.736,227.596 224.602 C 228.109 224.285,230.519 220.782,230.339 220.617 C 230.262 220.547,229.526 221.469,228.702 222.667 M200.400 222.354 C 200.400 222.720,198.966 222.811,194.637 222.721 C 191.468 222.654,188.958 222.735,189.061 222.900 C 189.361 223.383,200.314 223.263,200.616 222.773 C 200.761 222.539,200.772 222.239,200.640 222.107 C 200.508 221.975,200.400 222.086,200.400 222.354 M160.000 226.200 C 161.417 227.630,162.667 228.800,162.777 228.800 C 162.887 228.800,161.817 227.630,160.400 226.200 C 158.983 224.770,157.733 223.600,157.623 223.600 C 157.513 223.600,158.583 224.770,160.000 226.200 M185.000 225.200 C 185.440 225.389,186.070 225.544,186.400 225.544 C 186.778 225.544,186.704 225.417,186.200 225.200 C 185.760 225.011,185.130 224.856,184.800 224.856 C 184.422 224.856,184.496 224.983,185.000 225.200 M201.400 225.200 C 200.896 225.417,200.822 225.544,201.200 225.544 C 201.530 225.544,202.160 225.389,202.600 225.200 C 203.104 224.983,203.178 224.856,202.800 224.856 C 202.470 224.856,201.840 225.011,201.400 225.200 M224.388 227.900 L 221.800 230.600 224.500 228.012 C 225.985 226.588,227.200 225.373,227.200 225.312 C 227.200 225.017,226.793 225.392,224.388 227.900 M189.105 225.883 C 189.602 225.979,190.322 225.975,190.705 225.875 C 191.087 225.775,190.680 225.696,189.800 225.701 C 188.920 225.705,188.607 225.787,189.105 225.883 M197.105 225.883 C 197.602 225.979,198.322 225.975,198.705 225.875 C 199.087 225.775,198.680 225.696,197.800 225.701 C 196.920 225.705,196.607 225.787,197.105 225.883 M192.500 226.287 C 193.105 226.378,194.095 226.378,194.700 226.287 C 195.305 226.195,194.810 226.120,193.600 226.120 C 192.390 226.120,191.895 226.195,192.500 226.287 M164.842 230.537 C 165.809 231.272,167.050 232.086,167.600 232.345 C 168.437 232.740,168.479 232.734,167.857 232.308 C 167.449 232.029,166.334 231.215,165.381 230.500 C 164.428 229.785,163.521 229.200,163.366 229.200 C 163.212 229.200,163.876 229.802,164.842 230.537 M180.800 237.982 C 181.130 238.205,181.745 238.391,182.167 238.394 C 183.190 238.402,182.871 238.173,181.400 237.844 C 180.524 237.648,180.362 237.685,180.800 237.982 M205.800 238.000 C 205.296 238.217,205.222 238.344,205.600 238.344 C 205.930 238.344,206.560 238.189,207.000 238.000 C 207.504 237.783,207.578 237.656,207.200 237.656 C 206.870 237.656,206.240 237.811,205.800 238.000 M200.100 239.076 C 200.485 239.176,201.115 239.176,201.500 239.076 C 201.885 238.975,201.570 238.893,200.800 238.893 C 200.030 238.893,199.715 238.975,200.100 239.076 M192.300 239.489 C 193.015 239.578,194.185 239.578,194.900 239.489 C 195.615 239.401,195.030 239.328,193.600 239.328 C 192.170 239.328,191.585 239.401,192.300 239.489 " stroke="none" fill="#747474" fill-rule="evenodd"></path><path id="path4" d="M181.906 149.483 C 182.470 149.592,182.705 149.835,182.529 150.129 C 182.369 150.395,182.540 150.362,182.923 150.051 C 183.862 149.289,183.787 149.192,182.300 149.254 C 181.350 149.294,181.244 149.356,181.906 149.483 M188.521 149.480 C 189.124 149.636,189.160 149.777,188.741 150.333 C 188.317 150.896,188.326 150.922,188.799 150.500 C 189.108 150.225,189.864 150.000,190.480 150.000 C 191.096 150.000,191.600 149.820,191.600 149.600 C 191.600 149.380,190.745 149.221,189.700 149.246 C 188.655 149.272,188.125 149.377,188.521 149.480 M195.600 149.386 C 195.600 149.488,195.930 149.748,196.333 149.964 C 196.887 150.261,197.067 150.215,197.067 149.778 C 197.067 149.460,196.737 149.200,196.333 149.200 C 195.930 149.200,195.600 149.284,195.600 149.386 M208.521 149.480 C 209.129 149.637,209.161 149.767,208.721 150.303 C 208.306 150.810,208.424 150.794,209.300 150.224 C 210.708 149.308,210.683 149.190,209.100 149.246 C 208.385 149.272,208.124 149.377,208.521 149.480 M214.921 149.480 C 215.524 149.636,215.560 149.777,215.141 150.333 C 214.717 150.896,214.726 150.922,215.199 150.500 C 215.508 150.225,216.264 150.000,216.880 150.000 C 217.496 150.000,218.000 149.820,218.000 149.600 C 218.000 149.380,217.145 149.221,216.100 149.246 C 215.055 149.272,214.525 149.377,214.921 149.480 M178.797 153.282 C 178.688 155.197,178.743 156.620,178.918 156.444 C 179.093 156.268,179.181 154.701,179.115 152.962 L 178.993 149.800 178.797 153.282 M187.340 153.200 C 187.340 155.070,187.409 155.835,187.493 154.900 C 187.577 153.965,187.577 152.435,187.493 151.500 C 187.409 150.565,187.340 151.330,187.340 153.200 M207.260 153.076 C 207.227 154.878,207.335 156.437,207.500 156.539 C 207.665 156.642,207.750 155.618,207.688 154.263 C 207.500 150.122,207.323 149.631,207.260 153.076 M213.740 153.200 C 213.740 155.070,213.809 155.835,213.893 154.900 C 213.977 153.965,213.977 152.435,213.893 151.500 C 213.809 150.565,213.740 151.330,213.740 153.200 M181.606 151.251 C 181.603 151.609,181.868 152.124,182.196 152.396 C 182.523 152.668,182.669 153.095,182.519 153.345 C 182.369 153.595,182.551 153.553,182.923 153.251 C 183.716 152.608,183.785 152.360,183.133 152.500 C 182.876 152.555,182.428 152.150,182.139 151.600 C 181.791 150.941,181.610 150.822,181.606 151.251 M193.293 152.800 C 193.293 153.570,193.375 153.885,193.476 153.500 C 193.576 153.115,193.576 152.485,193.476 152.100 C 193.375 151.715,193.293 152.030,193.293 152.800 M203.100 153.876 C 202.268 154.093,202.159 154.800,202.957 154.800 C 203.264 154.800,203.618 154.530,203.745 154.200 C 203.871 153.870,203.936 153.621,203.887 153.646 C 203.839 153.672,203.485 153.775,203.100 153.876 M192.291 225.889 C 193.001 225.977,194.261 225.979,195.091 225.892 C 195.921 225.805,195.340 225.733,193.800 225.731 C 192.260 225.729,191.581 225.800,192.291 225.889 " stroke="none" fill="#7c7c7c" fill-rule="evenodd"></path></g></svg>